# xmcd CD database file
#
# Track frame offsets:
#	150
#	17575
#	30844
#	53838
#	65991
#	88582
#	107305
#	122526
#	138068
#	159185
#	173519
#	189354
#	209476
#	231478
#	249901
#	269374
#	282307
#
# Disc length: 4059 seconds
#
# Revision: 1
# Processed by: cddbd v1.5.2PL0 Copyright (c) Steve Scherf et al.
# Submitted via: CDex 1.70beta2
#
DISCID=d90fd911
DTITLE=Deák Bill Gyula - Hatvan Csapás
DYEAR=2008
DGENRE=Blues
TTITLE0=Hatvan csapás
TTITLE1=A nagy generáció temetése
TTITLE2=Kéne egy üveg bor
TTITLE3=Lát-e, aki lát
TTITLE4=Jó volna
TTITLE5=Péntek esti blues
TTITLE6=Anyám és apám
TTITLE7=Az országút elöttem
TTITLE8=A titkos lány
TTITLE9=Hóhér blues
TTITLE10=Bill kapitány imája
TTITLE11=Most vagy soha
TTITLE12=Angyalok asztalodon
TTITLE13=Intések fiamnak
TTITLE14=Nem vagyok eladó
TTITLE15=Soha és mindig
TTITLE16=A zöld, a bíbor, a fekete
EXTD=YEAR: 2008
EXTT0=
EXTT1=
EXTT2=
EXTT3=
EXTT4=
EXTT5=
EXTT6=
EXTT7=
EXTT8=
EXTT9=
EXTT10=
EXTT11=
EXTT12=
EXTT13=
EXTT14=
EXTT15=
EXTT16=
PLAYORDER=
